<?xml version="1.0" standalone="no"?>
<!DOCTYPE svg PUBLIC "-//W3C//DTD SVG 20010904//EN"
 "http://www.w3.org/TR/2001/REC-SVG-20010904/DTD/svg10.dtd">
<svg version="1.0" xmlns="http://www.w3.org/2000/svg"
 width="1151.000000pt" height="1151.000000pt" viewBox="0 0 1151.000000 1151.000000"
 preserveAspectRatio="xMidYMid meet">
<metadata>
Created by potrace 1.14, written by Peter Selinger 2001-2017
</metadata>
<g transform="translate(0.000000,1151.000000) scale(0.100000,-0.100000)"
fill="#000000" stroke="none">
<path d="M1870 11480 c-263 -20 -497 -84 -736 -201 -496 -242 -877 -693 -1035
-1223 -50 -171 -69 -301 -79 -546 -13 -317 -13 -4594 0 -4795 65 -1033 441
-2010 1084 -2815 392 -490 880 -909 1421 -1220 142 -82 454 -233 619 -300 418
-169 886 -284 1366 -337 155 -17 316 -18 2670 -18 2734 0 2553 -4 2805 59 780
197 1374 868 1480 1674 13 98 15 441 15 2505 0 1475 -4 2450 -10 2542 -69
1040 -446 2010 -1094 2816 -791 984 -1919 1630 -3166 1813 -352 52 -232 50
-2825 52 -1325 1 -2457 -2 -2515 -6z m4325 -1755 c931 -107 1768 -522 2430
-1206 533 -551 883 -1221 1034 -1984 169 -852 58 -1731 -315 -2505 -266 -549
-634 -1011 -1111 -1395 -122 -98 -403 -287 -538 -362 -441 -245 -922 -405
-1429 -474 -215 -29 -659 -37 -886 -15 -963 92 -1814 499 -2490 1192 -429 440
-738 948 -931 1534 -130 395 -186 725 -196 1150 -16 667 115 1263 407 1855
216 438 426 733 759 1065 191 191 339 316 541 457 578 404 1262 647 1985 703
157 12 576 4 740 -15z"/>
</g>
</svg>
