<svg width="6211" height="3887" viewBox="0 0 6211 3887" fill="none" xmlns="http://www.w3.org/2000/svg">
<path d="M81 482C81 261.086 260.086 82 481 82H1375C1927.28 82 2375 529.715 2375 1082V1976C2375 2196.91 2195.91 2376 1975 2376H1081C528.715 2376 81 1928.28 81 1376V482Z" fill="#007C71"/>
<path d="M2375 1082C2375 529.715 1927.28 82 1375 82H1076.5L1196 482C1796.5 643 2132 1082 2375 1545V1082Z" fill="#00D6C2"/>
<path d="M481 82C260.086 82 81 261.086 81 482V996.625C81 1069.38 81 1070.34 81 1241.5C497 667 1134.85 501 1575.5 529C1416 295 1221.9 113.944 1134.85 85.6406C1126.68 82.9835 1118.15 82 1109.56 82H481Z" fill="#F8B904"/>
<path d="M80.5 508C80.5 508 235.5 466 574.5 798.5C647.858 870.452 736.342 957.927 829.969 1050.84C1089.25 1308.14 889.06 1747.89 524.634 1722.87V1722.87C493.691 1720.75 465.538 1704.23 448.591 1678.25L242.958 1363.03C136.946 1200.53 80.5 1010.69 80.5 816.661V508Z" fill="#FF191F"/>
<path d="M2026 1229C2026 1669.72 1668.72 2027 1228 2027C787.277 2027 430 1669.72 430 1229C430 788.277 787.277 431 1228 431C1668.72 431 2026 788.277 2026 1229Z" fill="white"/>
<path fill-rule="evenodd" clip-rule="evenodd" d="M606.624 1729.74C585.521 1710.19 325.449 1461.97 81 882V3562.5C81 3708.03 198.973 3826 344.5 3826C490.027 3826 608 3708.03 608 3562.5V1731.44C607.54 1730.87 607.082 1730.31 606.624 1729.74Z" fill="#ED0D7E"/>
<path d="M608 2086H1135V3051.5C1135 3197.03 1017.03 3315 871.5 3315V3315C725.973 3315 608 3197.03 608 3051.5V2086Z" fill="#FDD35B"/>
<path d="M1135 2139H1662V2507.5C1662 2653.03 1544.03 2771 1398.5 2771V2771C1252.97 2771 1135 2653.03 1135 2507.5V2139Z" fill="#00E4A4"/>
<mask id="mask0_216_467" style="mask-type:alpha" maskUnits="userSpaceOnUse" x="81" y="653" width="1581" height="1723">
<path fill-rule="evenodd" clip-rule="evenodd" d="M1662 1898.77V2376H1081C528.715 2376 81 1928.28 81 1376V653.999L81.0002 654C282.709 1365.19 574.995 1695.24 605.415 1728.24C751.67 1910.39 976.218 2027 1228 2027C1388.04 2027 1537.08 1979.89 1662 1898.77Z" fill="#FDD35B"/>
</mask>
<g mask="url(#mask0_216_467)">
<path d="M83 635.5L458.238 999.701C555.252 1093.86 610 1223.3 610 1358.49V3562.5C610 3708.03 492.027 3826 346.5 3826V3826C200.973 3826 83 3708.03 83 3562.5L83 635.5Z" fill="#ED0D7E"/>
<path d="M610 1647H1137V3051.5C1137 3197.03 1019.03 3315 873.5 3315V3315C727.973 3315 610 3197.03 610 3051.5V1647Z" fill="#FDD35B"/>
<path d="M1137 1833H1664V2507.5C1664 2653.03 1546.03 2771 1400.5 2771V2771C1254.97 2771 1137 2653.03 1137 2507.5V1833Z" fill="#00E4A4"/>
<path d="M81 483C81 262.086 260.086 83 481 83H1375C1927.28 83 2375 530.715 2375 1083V1977C2375 2197.91 2195.91 2377 1975 2377H1081C528.715 2377 81 1929.28 81 1377V483Z" fill="black" fill-opacity="0.57" style="mix-blend-mode:darken"/>
</g>
<path d="M3167.4 824.633V858.324C3167.4 912.361 3160.07 960.863 3145.43 1003.83C3130.78 1046.8 3110.11 1083.42 3083.41 1113.7C3056.72 1143.64 3024.82 1166.59 2987.71 1182.54C2950.93 1198.49 2910.07 1206.47 2865.15 1206.47C2820.56 1206.47 2779.7 1198.49 2742.59 1182.54C2705.81 1166.59 2673.91 1143.64 2646.89 1113.7C2619.87 1083.42 2598.88 1046.8 2583.9 1003.83C2569.25 960.863 2561.93 912.361 2561.93 858.324V824.633C2561.93 770.271 2569.25 721.768 2583.9 679.125C2598.55 636.156 2619.22 599.535 2645.91 569.262C2672.93 538.988 2704.83 515.876 2741.62 499.926C2778.73 483.975 2819.58 476 2864.18 476C2909.1 476 2949.95 483.975 2986.73 499.926C3023.84 515.876 3055.74 538.988 3082.44 569.262C3109.46 599.535 3130.29 636.156 3144.94 679.125C3159.91 721.768 3167.4 770.271 3167.4 824.633ZM3019.45 858.324V823.656C3019.45 785.896 3016.03 752.693 3009.2 724.047C3002.36 695.401 2992.27 671.312 2978.92 651.781C2965.58 632.25 2949.3 617.602 2930.09 607.836C2910.89 597.745 2888.92 592.699 2864.18 592.699C2839.44 592.699 2817.46 597.745 2798.26 607.836C2779.38 617.602 2763.26 632.25 2749.92 651.781C2736.9 671.312 2726.97 695.401 2720.13 724.047C2713.3 752.693 2709.88 785.896 2709.88 823.656V858.324C2709.88 895.759 2713.3 928.962 2720.13 957.934C2726.97 986.579 2737.06 1010.83 2750.41 1030.69C2763.75 1050.22 2780.03 1065.03 2799.23 1075.12C2818.44 1085.21 2840.41 1090.26 2865.15 1090.26C2889.89 1090.26 2911.86 1085.21 2931.07 1075.12C2950.28 1065.03 2966.39 1050.22 2979.41 1030.69C2992.43 1010.83 3002.36 986.579 3009.2 957.934C3016.03 928.962 3019.45 895.759 3019.45 858.324Z" fill="#00D6C2"/>
<path d="M3404.7 769.945V1997.97H3264.08V668.383H3394.45L3404.7 769.945ZM3739.18 926.684V936.938C3739.18 975.349 3734.62 1010.99 3725.5 1043.87C3716.71 1076.75 3703.69 1105.39 3686.44 1129.81C3669.19 1153.9 3647.7 1172.78 3621.99 1186.45C3596.6 1199.8 3567.3 1206.47 3534.1 1206.47C3501.87 1206.47 3473.88 1199.96 3450.11 1186.94C3426.35 1173.92 3406.33 1155.69 3390.05 1132.25C3374.1 1108.49 3361.25 1080.98 3351.48 1049.73C3341.71 1018.48 3334.23 984.952 3329.02 949.145V922.289C3334.23 883.878 3341.71 848.721 3351.48 816.82C3361.25 784.594 3374.1 756.762 3390.05 733.324C3406.33 709.561 3426.19 691.169 3449.62 678.148C3473.39 665.128 3501.22 658.617 3533.12 658.617C3566.65 658.617 3596.11 664.965 3621.5 677.66C3647.22 690.355 3668.7 708.585 3685.95 732.348C3703.53 756.111 3716.71 784.431 3725.5 817.309C3734.62 850.186 3739.18 886.645 3739.18 926.684ZM3598.06 936.938V926.684C3598.06 904.223 3596.11 883.552 3592.2 864.672C3588.62 845.466 3582.76 828.702 3574.62 814.379C3566.81 800.056 3556.4 788.988 3543.38 781.176C3530.68 773.038 3515.22 768.969 3496.99 768.969C3477.78 768.969 3461.34 772.061 3447.67 778.246C3434.33 784.431 3423.42 793.383 3414.96 805.102C3406.49 816.82 3400.15 830.818 3395.91 847.094C3391.68 863.37 3389.08 881.762 3388.1 902.27V970.141C3389.73 994.229 3394.29 1015.88 3401.77 1035.08C3409.26 1053.96 3420.82 1068.94 3436.44 1080C3452.07 1091.07 3472.57 1096.61 3497.96 1096.61C3516.52 1096.61 3532.14 1092.54 3544.84 1084.4C3557.54 1075.93 3567.79 1064.38 3575.6 1049.73C3583.74 1035.08 3589.44 1018.15 3592.69 998.949C3596.27 979.743 3598.06 959.073 3598.06 936.938Z" fill="#00D6C2"/>
<path d="M4069.74 1206.47C4028.73 1206.47 3991.94 1199.96 3959.39 1186.94C3926.84 1173.59 3899.17 1155.2 3876.38 1131.76C3853.92 1108.32 3836.67 1081.14 3824.62 1050.22C3812.58 1018.97 3806.56 985.766 3806.56 950.609V931.078C3806.56 891.039 3812.26 854.418 3823.65 821.215C3835.04 788.012 3851.32 759.203 3872.48 734.789C3893.96 710.375 3920 691.658 3950.6 678.637C3981.2 665.29 4015.71 658.617 4054.12 658.617C4091.55 658.617 4124.76 664.802 4153.73 677.172C4182.7 689.542 4206.95 707.12 4226.48 729.906C4246.34 752.693 4261.31 780.036 4271.4 811.938C4281.49 843.513 4286.54 878.669 4286.54 917.406V976H3866.62V882.25H4148.36V871.508C4148.36 851.977 4144.77 834.561 4137.61 819.262C4130.78 803.637 4120.36 791.267 4106.36 782.152C4092.37 773.038 4074.46 768.48 4052.65 768.48C4034.1 768.48 4018.15 772.549 4004.8 780.688C3991.45 788.826 3980.55 800.219 3972.09 814.867C3963.95 829.516 3957.76 846.768 3953.53 866.625C3949.62 886.156 3947.67 907.641 3947.67 931.078V950.609C3947.67 971.768 3950.6 991.299 3956.46 1009.2C3962.65 1027.11 3971.27 1042.57 3982.34 1055.59C3993.73 1068.61 4007.4 1078.7 4023.36 1085.86C4039.63 1093.02 4058.02 1096.61 4078.53 1096.61C4103.92 1096.61 4127.52 1091.72 4149.33 1081.96C4171.47 1071.87 4190.51 1056.73 4206.46 1036.55L4274.82 1110.77C4263.75 1126.72 4248.62 1142.02 4229.41 1156.66C4210.53 1171.31 4187.74 1183.36 4161.05 1192.8C4134.36 1201.91 4103.92 1206.47 4069.74 1206.47Z" fill="#00D6C2"/>
<path d="M4504.31 781.176V1196.7H4363.69V668.383H4495.52L4504.31 781.176ZM4483.8 913.988H4445.72C4445.72 874.926 4450.76 839.77 4460.86 808.52C4470.95 776.944 4485.11 750.089 4503.34 727.953C4521.57 705.492 4543.21 688.402 4568.28 676.684C4593.67 664.639 4621.99 658.617 4653.24 658.617C4677.98 658.617 4700.6 662.198 4721.11 669.359C4741.62 676.521 4759.2 687.914 4773.84 703.539C4788.82 719.164 4800.21 739.835 4808.02 765.551C4816.16 791.267 4820.23 822.68 4820.23 859.789V1196.7H4678.63V859.301C4678.63 835.863 4675.37 817.634 4668.86 804.613C4662.35 791.592 4652.75 782.478 4640.05 777.27C4627.68 771.736 4612.39 768.969 4594.16 768.969C4575.28 768.969 4558.84 772.712 4544.84 780.199C4531.17 787.686 4519.77 798.103 4510.66 811.449C4501.87 824.47 4495.2 839.77 4490.64 857.348C4486.08 874.926 4483.8 893.806 4483.8 913.988Z" fill="#00D6C2"/>
<path d="M2899.33 1744.49H2718.18V1630.23H2899.33C2927.33 1630.23 2950.11 1625.68 2967.69 1616.56C2985.27 1607.12 2998.13 1594.1 3006.27 1577.5C3014.4 1560.9 3018.47 1542.18 3018.47 1521.35C3018.47 1500.19 3014.4 1480.49 3006.27 1462.27C2998.13 1444.04 2985.27 1429.39 2967.69 1418.32C2950.11 1407.25 2927.33 1401.72 2899.33 1401.72H2768.96V1997.91H2622.48V1286.97H2899.33C2955 1286.97 3002.68 1297.06 3042.4 1317.25C3082.44 1337.1 3113.04 1364.61 3134.2 1399.77C3155.35 1434.92 3165.93 1475.12 3165.93 1520.37C3165.93 1566.27 3155.35 1605.98 3134.2 1639.51C3113.04 1673.04 3082.44 1698.92 3042.4 1717.15C3002.68 1735.38 2955 1744.49 2899.33 1744.49Z" fill="white"/>
<path d="M3808.02 1878.77V1643.42C3808.02 1626.49 3805.26 1612.01 3799.72 1599.96C3794.19 1587.59 3785.56 1577.99 3773.84 1571.15C3762.45 1564.32 3747.64 1560.9 3729.41 1560.9C3713.79 1560.9 3700.28 1563.67 3688.88 1569.2C3677.49 1574.41 3668.7 1582.06 3662.52 1592.15C3656.33 1601.91 3653.24 1613.47 3653.24 1626.82H3512.61C3512.61 1604.36 3517.82 1583.03 3528.24 1562.85C3538.65 1542.67 3553.79 1524.93 3573.65 1509.63C3593.51 1494 3617.11 1481.8 3644.45 1473.01C3672.12 1464.22 3703.04 1459.82 3737.22 1459.82C3778.24 1459.82 3814.7 1466.66 3846.6 1480.33C3878.5 1494 3903.56 1514.51 3921.79 1541.86C3940.35 1569.2 3949.62 1603.38 3949.62 1644.39V1870.47C3949.62 1899.44 3951.42 1923.2 3955 1941.76C3958.58 1959.99 3963.79 1975.94 3970.62 1989.61V1997.91H3828.53C3821.7 1983.59 3816.49 1965.68 3812.91 1944.2C3809.65 1922.39 3808.02 1900.58 3808.02 1878.77ZM3826.58 1676.13L3827.55 1755.72H3748.94C3730.39 1755.72 3714.27 1757.84 3700.6 1762.07C3686.93 1766.3 3675.7 1772.32 3666.91 1780.14C3658.12 1787.62 3651.61 1796.41 3647.38 1806.5C3643.47 1816.6 3641.52 1827.66 3641.52 1839.71C3641.52 1851.75 3644.29 1862.66 3649.82 1872.42C3655.35 1881.86 3663.33 1889.35 3673.75 1894.88C3684.16 1900.09 3696.37 1902.7 3710.37 1902.7C3731.53 1902.7 3749.92 1898.46 3765.54 1890C3781.17 1881.54 3793.21 1871.12 3801.68 1858.75C3810.46 1846.38 3815.02 1834.66 3815.35 1823.59L3852.46 1883.16C3847.25 1896.51 3840.09 1910.35 3830.97 1924.67C3822.18 1938.99 3810.95 1952.5 3797.28 1965.2C3783.61 1977.57 3767.17 1987.82 3747.96 1995.96C3728.76 2003.77 3705.97 2007.68 3679.61 2007.68C3646.08 2007.68 3615.64 2001 3588.3 1987.66C3561.28 1973.98 3539.79 1955.27 3523.84 1931.5C3508.22 1907.42 3500.41 1880.07 3500.41 1849.47C3500.41 1821.8 3505.61 1797.23 3516.03 1775.74C3526.45 1754.26 3541.75 1736.19 3561.93 1721.54C3582.44 1706.57 3607.99 1695.34 3638.59 1687.85C3669.19 1680.04 3704.67 1676.13 3745.04 1676.13H3826.58Z" fill="white"/>
<path d="M4195.72 1582.38V1997.91H4055.09V1469.59H4186.93L4195.72 1582.38ZM4175.21 1715.2H4137.12C4137.12 1676.13 4142.17 1640.98 4152.26 1609.73C4162.35 1578.15 4176.51 1551.3 4194.74 1529.16C4212.97 1506.7 4234.62 1489.61 4259.68 1477.89C4285.07 1465.85 4313.39 1459.82 4344.64 1459.82C4369.38 1459.82 4392.01 1463.4 4412.52 1470.57C4433.02 1477.73 4450.6 1489.12 4465.25 1504.75C4480.22 1520.37 4491.62 1541.04 4499.43 1566.76C4507.57 1592.47 4511.64 1623.89 4511.64 1661V1997.91H4370.04V1660.51C4370.04 1637.07 4366.78 1618.84 4360.27 1605.82C4353.76 1592.8 4344.16 1583.68 4331.46 1578.48C4319.09 1572.94 4303.79 1570.18 4285.56 1570.18C4266.68 1570.18 4250.24 1573.92 4236.25 1581.41C4222.57 1588.89 4211.18 1599.31 4202.07 1612.66C4193.28 1625.68 4186.6 1640.98 4182.05 1658.55C4177.49 1676.13 4175.21 1695.01 4175.21 1715.2Z" fill="white"/>
<path d="M4756.27 1582.38V1997.91H4615.64V1469.59H4747.48L4756.27 1582.38ZM4735.76 1715.2H4697.67C4697.67 1676.13 4702.72 1640.98 4712.81 1609.73C4722.9 1578.15 4737.06 1551.3 4755.29 1529.16C4773.52 1506.7 4795.17 1489.61 4820.23 1477.89C4845.62 1465.85 4873.94 1459.82 4905.19 1459.82C4929.93 1459.82 4952.55 1463.4 4973.06 1470.57C4993.57 1477.73 5011.15 1489.12 5025.8 1504.75C5040.77 1520.37 5052.16 1541.04 5059.98 1566.76C5068.11 1592.47 5072.18 1623.89 5072.18 1661V1997.91H4930.58V1660.51C4930.58 1637.07 4927.33 1618.84 4920.82 1605.82C4914.31 1592.8 4904.7 1583.68 4892.01 1578.48C4879.64 1572.94 4864.34 1570.18 4846.11 1570.18C4827.23 1570.18 4810.79 1573.92 4796.79 1581.41C4783.12 1588.89 4771.73 1599.31 4762.61 1612.66C4753.82 1625.68 4747.15 1640.98 4742.59 1658.55C4738.04 1676.13 4735.76 1695.01 4735.76 1715.2Z" fill="white"/>
<path d="M5422.28 2007.68C5381.27 2007.68 5344.48 2001.17 5311.93 1988.14C5279.38 1974.8 5251.71 1956.41 5228.92 1932.97C5206.46 1909.53 5189.21 1882.35 5177.16 1851.43C5165.12 1820.18 5159.1 1786.97 5159.1 1751.82V1732.29C5159.1 1692.25 5164.79 1655.62 5176.19 1622.42C5187.58 1589.22 5203.86 1560.41 5225.02 1536C5246.5 1511.58 5272.54 1492.86 5303.14 1479.84C5333.74 1466.5 5368.24 1459.82 5406.66 1459.82C5444.09 1459.82 5477.29 1466.01 5506.27 1478.38C5535.24 1490.75 5559.49 1508.33 5579.02 1531.11C5598.88 1553.9 5613.85 1581.24 5623.94 1613.14C5634.03 1644.72 5639.08 1679.88 5639.08 1718.61V1777.21H5219.16V1683.46H5500.89V1672.71C5500.89 1653.18 5497.31 1635.77 5490.15 1620.47C5483.32 1604.84 5472.9 1592.47 5458.9 1583.36C5444.9 1574.24 5427 1569.69 5405.19 1569.69C5386.64 1569.69 5370.69 1573.76 5357.34 1581.89C5343.99 1590.03 5333.09 1601.43 5324.62 1616.07C5316.49 1630.72 5310.3 1647.98 5306.07 1667.83C5302.16 1687.36 5300.21 1708.85 5300.21 1732.29V1751.82C5300.21 1772.98 5303.14 1792.51 5309 1810.41C5315.18 1828.31 5323.81 1843.78 5334.88 1856.8C5346.27 1869.82 5359.94 1879.91 5375.89 1887.07C5392.17 1894.23 5410.56 1897.81 5431.07 1897.81C5456.46 1897.81 5480.06 1892.93 5501.87 1883.16C5524.01 1873.07 5543.05 1857.94 5559 1837.75L5627.36 1911.97C5616.29 1927.92 5601.15 1943.22 5581.95 1957.87C5563.07 1972.52 5540.28 1984.56 5513.59 1994C5486.9 2003.12 5456.46 2007.68 5422.28 2007.68Z" fill="white"/>
<path d="M5859.78 1584.82V1997.91H5719.16V1469.59H5851.48L5859.78 1584.82ZM6018.96 1466.17L6016.52 1596.54C6009.68 1595.57 6001.38 1594.75 5991.62 1594.1C5982.18 1593.12 5973.55 1592.64 5965.74 1592.64C5945.88 1592.64 5928.63 1595.24 5913.98 1600.45C5899.66 1605.33 5887.61 1612.66 5877.85 1622.42C5868.41 1632.19 5861.25 1644.07 5856.36 1658.07C5851.81 1672.06 5849.2 1688.01 5848.55 1705.92L5820.23 1697.13C5820.23 1662.95 5823.65 1631.54 5830.48 1602.89C5837.32 1573.92 5847.25 1548.69 5860.27 1527.21C5873.62 1505.72 5889.89 1489.12 5909.1 1477.4C5928.3 1465.68 5950.28 1459.82 5975.02 1459.82C5982.83 1459.82 5990.8 1460.48 5998.94 1461.78C6007.08 1462.75 6013.75 1464.22 6018.96 1466.17Z" fill="white"/>
</svg>
