<svg width="2300" height="2302" viewBox="0 0 2300 2302" fill="none" xmlns="http://www.w3.org/2000/svg">
<path d="M2.5 404C2.5 183.086 181.586 4 402.5 4H1296.5C1848.78 4 2296.5 451.715 2296.5 1004V1898C2296.5 2118.91 2117.41 2298 1896.5 2298H1002.5C450.215 2298 2.5 1850.28 2.5 1298V404Z" fill="#007C71"/>
<path d="M2296.5 1004C2296.5 451.715 1848.78 4 1296.5 4H998L1117.5 404C1718 565 2053.5 1004 2296.5 1467V1004Z" fill="#00D6C2"/>
<path d="M402.5 4C181.586 4 2.5 183.086 2.5 404V918.625C2.5 991.382 2.5 992.341 2.5 1163.5C418.5 589 1056.35 423 1497 451C1337.5 217 1143.4 35.944 1056.35 7.64059C1048.18 4.9835 1039.65 4 1031.06 4H402.5Z" fill="#F8B904"/>
<path d="M2 430C2 430 157 388 496 720.5C569.358 792.451 657.842 879.926 751.469 972.837C1010.75 1230.14 810.56 1669.89 446.134 1644.87V1644.87C415.191 1642.75 387.038 1626.23 370.091 1600.25L164.458 1285.03C58.4462 1122.53 2 932.689 2 738.661V430Z" fill="#FF191F"/>
<path d="M1947.5 1151C1947.5 1591.72 1590.22 1949 1149.5 1949C708.777 1949 351.5 1591.72 351.5 1151C351.5 710.277 708.777 353 1149.5 353C1590.22 353 1947.5 710.277 1947.5 1151Z" fill="white"/>
<mask id="mask0_213_434" style="mask-type:alpha" maskUnits="userSpaceOnUse" x="2" y="575" width="1582" height="1723">
<path fill-rule="evenodd" clip-rule="evenodd" d="M1583.5 1820.77V2298H1002.5C450.215 2298 2.5 1850.28 2.5 1298V575.999L2.50021 576C204.209 1287.19 496.495 1617.24 526.915 1650.24C673.17 1832.39 897.718 1949 1149.5 1949C1309.54 1949 1458.58 1901.89 1583.5 1820.77Z" fill="#FDD35B"/>
</mask>
<g mask="url(#mask0_213_434)">
<path d="M4.5 629L351.95 919.091C465.733 1014.09 531.5 1154.68 531.5 1302.9V3484.5C531.5 3630.03 413.527 3748 268 3748V3748C122.473 3748 4.5 3630.03 4.5 3484.5V629Z" fill="#ED0D7E"/>
<path d="M531.5 1569H1058.5V2973.5C1058.5 3119.03 940.527 3237 795 3237V3237C649.473 3237 531.5 3119.03 531.5 2973.5V1569Z" fill="#FDD35B"/>
<path d="M1058.5 1755H1585.5V2429.5C1585.5 2575.03 1467.53 2693 1322 2693V2693C1176.47 2693 1058.5 2575.03 1058.5 2429.5V1755Z" fill="#00E4A4"/>
<path d="M2.5 405C2.5 184.086 181.586 5 402.5 5H1296.5C1848.78 5 2296.5 452.715 2296.5 1005V1899C2296.5 2119.91 2117.41 2299 1896.5 2299H1002.5C450.215 2299 2.5 1851.28 2.5 1299V405Z" fill="black" fill-opacity="0.57" style="mix-blend-mode:darken"/>
</g>
</svg>
